<?xml version="1.0" standalone="no"?>
<!DOCTYPE svg PUBLIC "-//W3C//DTD SVG 20010904//EN"
 "http://www.w3.org/TR/2001/REC-SVG-20010904/DTD/svg10.dtd">
<svg version="1.0" xmlns="http://www.w3.org/2000/svg"
 width="150.000000pt" height="150.000000pt" viewBox="0 0 150.000000 150.000000"
 preserveAspectRatio="xMidYMid meet">
<metadata>
Created by potrace 1.11, written by Peter Selinger 2001-2013
</metadata>
<g transform="translate(0.000000,150.000000) scale(0.100000,-0.100000)"
fill="#000000" stroke="none">
<path d="M450 1388 c-44 -16 -78 -58 -90 -110 -25 -100 7 -215 77 -282 133
-130 279 -8 239 199 -24 122 -143 224 -226 193z"/>
<path d="M974 1381 c-81 -37 -145 -147 -145 -252 0 -55 3 -65 25 -111 71 -147
263 -64 303 132 20 101 -14 204 -77 229 -51 20 -66 20 -106 2z"/>
<path d="M104 1014 c-102 -50 -95 -228 12 -311 73 -55 171 -36 208 41 22 47
25 81 10 131 -20 67 -47 103 -95 130 -53 29 -91 31 -135 9z"/>
<path d="M1282 1009 c-135 -67 -152 -281 -27 -329 113 -43 235 71 228 212 -4
70 -67 138 -129 138 -16 0 -48 -10 -72 -21z"/>
<path d="M684 835 c-88 -24 -194 -94 -288 -193 -47 -50 -126 -160 -126 -177 0
-6 -6 -17 -12 -23 -21 -21 -45 -114 -44 -167 5 -144 152 -188 389 -116 129 39
184 39 322 -3 182 -56 314 -36 358 54 18 35 16 129 -3 180 -81 215 -332 442
-505 455 -22 1 -63 -3 -91 -10z"/>
</g>
</svg>
